<svg xmlns="http://www.w3.org/2000/svg" viewBox="0 0 800 200">
<rect x="0" y="0" width="50" height="200" fill="#29231c" />
<rect x="50" y="0" width="50" height="200" fill="#8f8f8b" />
<rect x="100" y="0" width="50" height="200" fill="#7a766c" />
<rect x="150" y="0" width="50" height="200" fill="#9e9e9b" />
<rect x="200" y="0" width="50" height="200" fill="#8f8f8b" />
<rect x="250" y="0" width="50" height="200" fill="#8b6048" />
<rect x="300" y="0" width="50" height="200" fill="#8f8f8b" />
<rect x="350" y="0" width="50" height="200" fill="#29231c" />
<rect x="400" y="0" width="50" height="200" fill="#343b40" />
<rect x="450" y="0" width="50" height="200" fill="#dde8ef" />
<rect x="500" y="0" width="50" height="200" fill="#8f8f8b" />
<rect x="550" y="0" width="50" height="200" fill="#80745d" />
<rect x="600" y="0" width="50" height="200" fill="#7a766c" />
<rect x="650" y="0" width="50" height="200" fill="#878680" />
<rect x="700" y="0" width="50" height="200" fill="#7a766c" />
<rect x="750" y="0" width="50" height="200" fill="#80745d" />
</svg>