<svg xmlns="http://www.w3.org/2000/svg" width="400" height="400"><rect x="0" y="0" width="100" height="100" fill="#1e4b4a" /><rect x="100" y="0" width="100" height="100" fill="#899f89" /><rect x="200" y="0" width="100" height="100" fill="#2e5855" /><rect x="300" y="0" width="100" height="100" fill="#856e56" /><rect x="0" y="100" width="100" height="100" fill="#2d2b17" /><rect x="100" y="100" width="100" height="100" fill="#343623" /><rect x="200" y="100" width="100" height="100" fill="#2d2b17" /><rect x="300" y="100" width="100" height="100" fill="#927b64" /><rect x="0" y="200" width="100" height="100" fill="#504000" /><rect x="100" y="200" width="100" height="100" fill="#f84b00" /><rect x="200" y="200" width="100" height="100" fill="#ff3210" /><rect x="300" y="200" width="100" height="100" fill="#ff3663" /><rect x="0" y="300" width="100" height="100" fill="#9971a5" /><rect x="100" y="300" width="100" height="100" fill="#004286" /><rect x="200" y="300" width="100" height="100" fill="#00584c" /><rect x="300" y="300" width="100" height="100" fill="#205000" /></svg>